<?xml version="1.0" standalone="no"?>
<!DOCTYPE svg PUBLIC "-//W3C//DTD SVG 20010904//EN"
 "http://www.w3.org/TR/2001/REC-SVG-20010904/DTD/svg10.dtd">
<svg version="1.0" xmlns="http://www.w3.org/2000/svg"
 width="1476.000000pt" height="1290.000000pt" viewBox="0 0 1476.000000 1290.000000"
 preserveAspectRatio="xMidYMid meet">

<g transform="translate(0.000000,1290.000000) scale(0.100000,-0.100000)"
fill="#000000" stroke="none">
<path d="M3209 10645 c-597 -82 -1136 -424 -1504 -955 -403 -582 -704 -1373
-812 -2130 -22 -159 -25 -684 -5 -825 70 -472 211 -860 447 -1221 304 -467
747 -820 1243 -991 l78 -27 -13 -95 c-94 -689 -372 -1444 -781 -2121 -212
-351 -521 -763 -801 -1070 -42 -47 -81 -91 -85 -97 -10 -18 11 -53 33 -53 29
0 473 264 771 458 117 76 368 248 450 307 553 403 926 720 1340 1141 315 321
477 509 756 881 59 80 284 414 304 453 7 14 16 27 21 30 23 16 3224 -75 5304
-150 303 -11 607 -20 677 -20 430 0 873 191 1254 541 637 585 1054 1569 1054
2487 0 583 -160 1133 -463 1589 -367 552 -895 912 -1494 1018 -48 8 -155 20
-238 26 -82 5 -294 28 -470 49 -356 44 -694 84 -1385 165 -256 30 -541 64
-635 75 -93 11 -465 54 -825 95 -1499 173 -2131 248 -3075 365 -659 82 -735
90 -885 89 -91 -1 -208 -7 -261 -14z m1121 -254 c664 -84 1424 -183 2110 -276
223 -30 556 -75 740 -99 184 -25 502 -68 705 -95 577 -78 1026 -138 1195 -160
85 -11 256 -34 380 -50 124 -17 297 -39 385 -50 88 -11 280 -36 427 -55 147
-20 336 -40 420 -46 176 -12 244 -22 380 -56 301 -75 563 -212 814 -427 670
-574 975 -1536 788 -2482 -63 -322 -150 -569 -306 -877 -346 -683 -882 -1148
-1462 -1269 -141 -30 -285 -28 -856 10 -261 17 -844 56 -1295 86 -451 30 -914
62 -1030 70 -1365 97 -1949 140 -2595 191 -613 48 -669 51 -723 30 -73 -27
-107 -75 -226 -311 -443 -884 -1137 -1732 -2076 -2540 -198 -170 -615 -502
-615 -489 0 3 46 54 101 112 56 59 156 172 223 252 689 822 1147 1748 1331
2690 28 144 27 187 -4 248 -41 79 -100 115 -216 131 -406 59 -786 258 -1088
570 -353 365 -581 850 -653 1391 -22 162 -24 496 -6 670 75 697 345 1462 708
2011 296 449 746 764 1239 868 278 59 396 54 1205 -48z"/>
<path d="M1915 8398 c-3 -7 -18 -119 -34 -248 -28 -234 -28 -270 4 -270 17 0
22 17 31 105 3 39 9 75 13 82 4 8 32 -17 74 -68 68 -80 117 -119 150 -119 39
0 27 30 -40 97 -38 37 -83 87 -101 109 l-32 42 48 38 c100 81 182 167 182 191
0 45 -39 26 -152 -77 -61 -56 -112 -99 -115 -96 -2 2 0 39 6 81 17 118 15 145
-9 145 -11 0 -23 -6 -25 -12z"/>
<path d="M3384 8232 c-10 -7 -64 -410 -64 -479 0 -17 5 -35 10 -38 20 -12 38
16 45 70 6 49 10 57 38 71 30 16 31 16 52 -10 12 -15 37 -56 56 -91 33 -64 63
-83 75 -51 5 14 -29 90 -72 158 -13 21 -24 42 -24 47 0 6 27 29 61 51 40 28
59 47 57 58 -6 33 -43 22 -127 -38 -80 -58 -101 -69 -101 -52 1 4 9 70 19 147
20 151 15 184 -25 157z"/>
<path d="M3212 8208 c2 -15 10 -23 23 -23 13 0 21 8 23 23 3 18 -1 22 -23 22
-22 0 -26 -4 -23 -22z"/>
<path d="M2324 8171 c-67 -41 -99 -110 -92 -197 8 -90 80 -139 172 -115 32 8
44 7 57 -4 17 -16 45 -20 53 -7 3 5 -1 30 -9 55 -14 47 -12 109 6 177 14 56
11 69 -23 90 -43 26 -122 27 -164 1z m123 -39 c18 -12 -3 -193 -25 -209 -24
-19 -86 -16 -113 6 -20 16 -24 28 -23 69 0 30 8 61 18 77 33 50 107 80 143 57z"/>
<path d="M2625 7995 c-14 -121 -15 -169 -7 -177 22 -22 39 0 47 59 9 74 33
130 76 171 23 23 41 32 59 30 l25 -3 -4 -143 c-3 -137 -3 -144 15 -140 17 3
20 18 28 146 10 166 5 188 -47 197 -37 7 -67 -4 -104 -38 l-23 -20 0 41 c0 37
-3 42 -23 42 -23 0 -24 -4 -42 -165z"/>
<path d="M4032 8098 c4 -30 43 -33 43 -3 0 13 -8 21 -23 23 -20 3 -23 0 -20
-20z"/>
<path d="M3185 8078 c-6 -19 -35 -247 -35 -280 0 -29 24 -48 40 -32 9 9 40
233 40 291 0 27 -4 33 -20 33 -11 0 -23 -6 -25 -12z"/>
<path d="M4015 7978 c-3 -7 -13 -102 -23 -211 -16 -172 -22 -201 -39 -219 -26
-26 -40 -18 -63 38 -14 31 -25 44 -39 44 -25 0 -30 -17 -17 -59 27 -89 110
-120 160 -60 32 38 32 38 51 233 21 220 20 246 -5 246 -11 0 -23 -6 -25 -12z"/>
<path d="M4203 7929 c-71 -45 -105 -178 -63 -247 49 -81 231 -98 289 -28 12
15 12 19 -2 33 -15 15 -18 15 -34 0 -44 -39 -148 -30 -193 18 l-23 24 26 10
c15 6 52 18 84 27 123 35 161 72 134 130 -24 53 -156 73 -218 33z m155 -52
c13 -13 11 -17 -15 -30 -41 -22 -154 -59 -160 -53 -9 9 39 84 61 95 27 14 95
7 114 -12z"/>
<path d="M4745 7741 c-19 -164 -17 -195 12 -189 12 2 20 22 30 73 17 93 27
115 72 159 27 27 46 37 62 34 l24 -3 -4 -142 c-3 -125 -2 -143 12 -143 9 0 18
3 20 8 3 4 8 72 12 152 8 163 4 177 -55 186 -27 4 -43 0 -73 -20 -21 -14 -40
-26 -42 -26 -3 0 -5 16 -5 35 0 30 -3 35 -23 35 -23 0 -24 -5 -42 -159z"/>
<path d="M5120 7818 c-40 -28 -71 -84 -77 -142 -17 -147 132 -232 230 -131 73
76 76 229 6 279 -35 24 -118 21 -159 -6z m120 -38 c41 -22 48 -122 13 -178
-17 -27 -70 -52 -92 -44 -27 9 -59 43 -65 68 -10 37 12 104 44 136 30 29 66
36 100 18z"/>
<path d="M5475 7781 c-62 -38 -94 -99 -95 -182 0 -60 32 -110 84 -126 46 -16
77 -9 111 25 l27 26 -7 -39 c-19 -105 -56 -141 -133 -131 -26 3 -62 8 -79 12
-30 6 -33 4 -33 -19 0 -33 40 -47 130 -47 114 0 132 27 180 268 16 84 30 158
30 166 0 7 -17 25 -38 40 -48 33 -130 36 -177 7z m148 -50 c9 -9 7 -30 -6 -79
-20 -78 -67 -132 -115 -132 -99 0 -84 183 18 223 22 9 91 0 103 -12z"/>
<path d="M6023 7709 c-18 -11 -43 -43 -57 -72 -67 -134 2 -246 152 -247 89 0
166 48 127 80 -12 10 -19 10 -33 -3 -43 -40 -147 -30 -192 18 l-23 24 26 10
c15 6 52 18 84 27 123 35 161 72 134 130 -24 53 -156 73 -218 33z m155 -52
c13 -13 11 -17 -14 -30 -38 -19 -156 -58 -161 -53 -9 8 27 65 54 86 22 17 37
21 67 17 21 -3 45 -12 54 -20z"/>
<path d="M6346 7698 c-7 -20 -36 -260 -36 -295 0 -33 22 -50 39 -30 5 7 15 53
21 102 6 50 18 100 26 112 17 27 58 50 99 54 29 4 30 3 27 -34 -3 -41 17 -59
43 -37 23 19 20 107 -4 120 -29 15 -71 12 -120 -10 -53 -24 -49 -25 -53 2 -3
25 -36 37 -42 16z"/>
<path d="M6715 7631 c-62 -38 -95 -100 -95 -178 0 -83 46 -135 121 -137 29 0
45 6 69 29 l32 30 -7 -40 c-11 -62 -31 -102 -59 -121 -26 -17 -51 -16 -148 2
-36 6 -38 5 -38 -19 0 -33 39 -47 129 -47 114 0 134 29 180 263 17 87 31 164
31 171 0 7 -17 25 -38 40 -48 33 -130 36 -177 7z m148 -50 c9 -9 7 -30 -6 -79
-20 -78 -67 -132 -115 -132 -99 0 -84 183 18 223 22 9 91 0 103 -12z"/>
<path d="M7053 7579 c-71 -45 -105 -178 -63 -247 49 -81 231 -98 289 -28 12
15 12 19 -2 33 -15 15 -18 15 -34 0 -45 -40 -170 -26 -201 23 -14 23 -14 24
105 59 111 33 152 77 122 133 -26 48 -157 65 -216 27z m155 -52 c13 -13 12
-16 -8 -27 -33 -18 -163 -61 -168 -56 -8 9 41 84 62 95 27 14 95 7 114 -12z"/>
<path d="M7395 7421 c-19 -164 -17 -195 12 -189 12 2 20 22 30 73 17 93 27
115 72 159 27 27 46 37 62 34 l24 -3 -4 -143 c-3 -137 -3 -144 15 -140 17 3
20 18 28 140 10 157 6 180 -29 196 -38 18 -58 15 -99 -13 -20 -14 -39 -25 -41
-25 -3 0 -5 16 -5 35 0 30 -3 35 -23 35 -23 0 -24 -5 -42 -159z"/>
<path d="M7841 7531 c-94 -20 -131 -48 -131 -100 0 -34 14 -47 94 -86 51 -25
62 -35 64 -59 2 -16 -2 -32 -10 -37 -23 -15 -83 -10 -123 11 -46 23 -68 19
-63 -12 7 -48 149 -82 210 -49 47 24 61 87 33 141 -15 29 -98 80 -130 80 -23
0 -18 28 8 45 13 8 44 18 69 21 45 6 47 6 50 -22 2 -21 8 -29 23 -29 16 0 21
8 23 43 3 39 -10 74 -27 71 -3 -1 -44 -9 -90 -18z"/>
<path d="M8270 7475 c-7 -9 -17 -55 -21 -103 -4 -48 -13 -113 -20 -145 -13
-61 -1 -113 23 -105 18 6 25 28 36 111 9 71 13 81 43 107 38 33 86 56 96 46 3
-3 2 -68 -4 -143 -5 -76 -8 -144 -5 -150 6 -19 40 -16 46 5 2 9 8 64 11 122 5
70 12 111 22 122 18 21 71 43 81 34 4 -4 9 -76 12 -159 l5 -152 25 0 25 0 3
162 c2 152 1 164 -18 183 -25 25 -86 27 -118 4 -22 -15 -24 -14 -43 10 -29 37
-66 34 -119 -11 l-43 -37 7 43 c9 59 -16 90 -44 56z"/>
<path d="M9732 7468 c-7 -7 -12 -25 -12 -41 0 -25 -40 -334 -56 -438 -5 -28
-2 -38 10 -42 23 -9 46 2 46 22 2 78 20 152 46 185 36 45 87 71 112 57 15 -9
17 -27 17 -153 l0 -143 25 0 25 0 3 155 c3 178 -1 188 -65 197 -34 4 -51 0
-89 -22 l-47 -28 6 30 c22 110 29 203 17 218 -15 18 -22 19 -38 3z"/>
<path d="M8803 7369 c-71 -45 -105 -178 -63 -247 49 -81 231 -98 289 -28 12
15 12 19 -2 33 -15 15 -18 15 -34 0 -44 -39 -148 -30 -193 18 l-23 24 26 10
c15 6 52 18 84 27 122 35 161 72 135 128 -24 54 -156 75 -219 35z m155 -52
c13 -13 12 -16 -8 -27 -32 -17 -163 -61 -167 -56 -9 8 27 65 54 86 22 17 37
21 67 17 21 -3 45 -12 54 -20z"/>
<path d="M10495 7358 c-8 -39 -55 -441 -55 -475 0 -26 4 -33 20 -33 11 0 23 6
25 13 9 25 64 500 59 509 -11 17 -44 8 -49 -14z"/>
<path d="M9173 7319 c-71 -45 -105 -178 -63 -247 49 -81 231 -98 289 -28 12
15 12 19 -2 33 -15 15 -18 15 -34 0 -44 -39 -148 -30 -193 18 l-23 24 24 10
c14 5 57 18 96 30 111 33 152 77 122 133 -26 48 -157 65 -216 27z m155 -52
c13 -13 12 -16 -8 -27 -32 -17 -163 -61 -167 -56 -9 8 27 65 54 86 22 17 37
21 67 17 21 -3 45 -12 54 -20z"/>
<path d="M10112 7208 c-43 -31 -82 -110 -82 -167 0 -92 70 -150 178 -151 89 0
166 48 127 80 -12 10 -19 10 -33 -3 -25 -22 -93 -31 -135 -18 -36 12 -84 55
-70 64 4 3 45 17 91 31 110 35 140 51 148 82 16 61 -41 104 -138 104 -39 0
-62 -6 -86 -22z m155 -51 c14 -14 12 -17 -17 -32 -43 -22 -151 -58 -157 -51
-7 7 16 48 46 79 23 25 31 28 70 24 23 -3 50 -12 58 -20z"/>
<path d="M10638 7183 c-10 -12 -18 -51 -22 -118 -4 -55 -15 -165 -25 -245 -16
-121 -16 -147 -5 -159 23 -25 41 4 48 77 11 101 11 102 49 91 77 -22 142 3
172 67 41 87 25 225 -29 254 -23 12 -77 10 -124 -5 -18 -6 -21 -4 -16 9 6 16
-11 46 -26 46 -4 0 -14 -8 -22 -17z m168 -94 c14 -16 18 -35 17 -78 -2 -107
-48 -154 -125 -129 -44 15 -42 10 -33 104 5 56 11 76 28 92 42 37 85 42 113
11z"/>
<path d="M11723 7161 c-46 -21 -46 -21 -37 -45 8 -20 31 -20 77 -1 44 18 73 9
110 -35 27 -31 33 -62 20 -95 -3 -10 -44 -42 -90 -71 -59 -39 -83 -60 -83 -74
0 -29 28 -36 59 -16 14 9 52 30 84 48 68 37 89 70 89 140 0 54 -32 115 -77
144 -39 26 -103 28 -152 5z"/>
<path d="M11023 7099 c-18 -11 -43 -43 -57 -72 -67 -134 2 -246 152 -247 89 0
166 48 127 80 -12 10 -19 10 -33 -3 -43 -40 -147 -30 -192 18 l-23 24 26 10
c15 6 52 18 84 27 123 35 161 72 134 130 -24 53 -156 73 -218 33z m148 -48
l23 -18 -23 -13 c-33 -17 -164 -61 -168 -56 -3 2 3 18 11 34 35 67 109 92 157
53z"/>
<path d="M11355 6925 c-14 -121 -15 -169 -7 -177 20 -20 39 0 46 48 11 87 27
126 68 170 30 33 48 44 70 44 l29 0 -7 -145 c-6 -129 -5 -145 9 -145 9 0 18 3
20 8 3 4 8 72 12 152 8 163 4 177 -55 186 -27 4 -43 0 -73 -20 -21 -14 -40
-26 -42 -26 -3 0 -5 16 -5 35 0 30 -3 35 -23 35 -23 0 -24 -4 -42 -165z"/>
<path d="M11689 6739 c-9 -17 -8 -25 5 -37 22 -22 50 -5 54 32 3 22 0 26 -22
26 -16 0 -30 -8 -37 -21z"/>
</g>
</svg>
