<?xml version="1.0" standalone="no"?>
<!DOCTYPE svg PUBLIC "-//W3C//DTD SVG 20010904//EN"
 "http://www.w3.org/TR/2001/REC-SVG-20010904/DTD/svg10.dtd">
<svg version="1.0" xmlns="http://www.w3.org/2000/svg"
 width="258.000000pt" height="195.000000pt" viewBox="0 0 258.000000 195.000000"
 preserveAspectRatio="xMidYMid meet">

<g transform="translate(0.000000,195.000000) scale(0.100000,-0.100000)"
fill="#000000" stroke="none">
<path d="M2257 1915 c18 -8 53 -28 78 -45 37 -25 48 -29 65 -20 11 6 20 13 20
16 0 2 -9 0 -20 -6 -15 -8 -31 -3 -81 30 -34 22 -69 40 -78 40 -9 -1 -1 -7 16
-15z"/>
<path d="M2070 1910 c8 -5 28 -10 44 -10 39 0 30 6 -19 13 -27 4 -35 3 -25 -3z"/>
<path d="M1768 1883 c12 -2 32 -2 45 0 12 2 2 4 -23 4 -25 0 -35 -2 -22 -4z"/>
<path d="M1873 1883 c9 -2 25 -2 35 0 9 3 1 5 -18 5 -19 0 -27 -2 -17 -5z"/>
<path d="M2442 1885 c-2 -5 -2 -92 -2 -192 1 -161 -1 -182 -15 -177 -8 3 -15
14 -15 24 0 33 -103 108 -134 97 -6 -2 3 -7 20 -11 40 -9 104 -62 104 -86 0
-24 38 -47 45 -28 3 8 4 97 2 198 -1 102 -4 181 -5 175z"/>
<path d="M1548 1843 c7 -3 16 -2 19 1 4 3 -2 6 -13 5 -11 0 -14 -3 -6 -6z"/>
<path d="M1298 1816 c-3 -16 -1 -23 5 -19 6 3 38 6 71 6 l61 0 -55 4 c-33 2
-59 10 -66 19 -10 12 -12 10 -16 -10z"/>
<path d="M1188 1754 c-38 -20 -36 -28 2 -9 17 9 30 18 30 20 0 7 -1 6 -32 -11z"/>
<path d="M2020 1656 c0 -14 4 -27 9 -30 4 -3 6 5 4 19 -5 21 -1 24 33 28 l39
4 -42 1 c-39 2 -43 0 -43 -22z"/>
<path d="M2133 1663 c9 -2 23 -2 30 0 6 3 -1 5 -18 5 -16 0 -22 -2 -12 -5z"/>
<path d="M2192 1640 c0 -14 2 -19 5 -12 2 6 2 18 0 25 -3 6 -5 1 -5 -13z"/>
<path d="M954 1634 c-18 -14 -18 -14 6 -3 31 14 36 19 24 19 -6 0 -19 -7 -30
-16z"/>
<path d="M2238 1643 c7 -3 16 -2 19 1 4 3 -2 6 -13 5 -11 0 -14 -3 -6 -6z"/>
<path d="M2040 1565 c0 -5 5 -17 10 -25 5 -8 10 -10 10 -5 0 6 -5 17 -10 25
-5 8 -10 11 -10 5z"/>
<path d="M1670 1537 c3 -2 46 -7 95 -10 50 -3 97 -9 106 -12 10 -4 19 -3 22 2
6 10 9 9 -128 19 -55 3 -98 4 -95 1z"/>
<path d="M1460 1509 c-47 -24 -26 -24 25 1 22 11 33 19 25 19 -8 -1 -31 -9
-50 -20z"/>
<path d="M705 1510 c-3 -6 1 -7 9 -4 18 7 21 14 7 14 -6 0 -13 -4 -16 -10z"/>
<path d="M1531 1504 c0 -11 3 -14 6 -6 3 7 2 16 -1 19 -3 4 -6 -2 -5 -13z"/>
<path d="M1911 1507 c0 -10 6 -20 14 -23 10 -4 13 -13 10 -24 -7 -21 10 -36
21 -19 4 8 3 9 -5 5 -8 -6 -10 0 -5 18 5 20 2 26 -9 26 -9 0 -18 8 -20 18 -4
16 -5 16 -6 -1z"/>
<path d="M2013 1513 c-13 -3 -23 -12 -23 -22 0 -9 -6 -23 -12 -31 -11 -12 -10
-12 5 -1 9 7 17 19 17 25 0 7 12 17 28 23 28 11 23 13 -15 6z"/>
<path d="M648 1483 c7 -3 16 -2 19 1 4 3 -2 6 -13 5 -11 0 -14 -3 -6 -6z"/>
<path d="M1377 1465 c-31 -22 -36 -29 -27 -45 16 -30 12 -48 -15 -66 -23 -15
-26 -15 -56 7 -35 25 -52 20 -77 -22 -12 -20 -10 -19 8 4 26 33 33 33 71 6 28
-20 31 -20 55 -4 32 21 39 40 26 70 -10 22 -8 26 23 45 19 12 35 24 35 26 0 7
-4 5 -43 -21z"/>
<path d="M605 1470 c-3 -6 1 -7 9 -4 18 7 21 14 7 14 -6 0 -13 -4 -16 -10z"/>
<path d="M1538 1468 c5 -5 16 -8 23 -6 8 3 3 7 -10 11 -17 4 -21 3 -13 -5z"/>
<path d="M1628 1463 c6 -2 18 -2 25 0 6 3 1 5 -13 5 -14 0 -19 -2 -12 -5z"/>
<path d="M564 1438 l-19 -23 23 19 c21 18 27 26 19 26 -2 0 -12 -10 -23 -22z"/>
<path d="M514 1398 l-19 -23 23 19 c21 18 27 26 19 26 -2 0 -12 -10 -23 -22z"/>
<path d="M910 1391 c-5 -11 -10 -26 -9 -33 0 -7 5 -1 11 15 9 24 15 27 54 27
32 0 56 -8 82 -25 20 -14 41 -25 46 -25 6 0 -11 14 -37 30 -58 37 -130 42
-147 11z"/>
<path d="M480 1350 c-6 -11 -8 -20 -6 -20 3 0 10 9 16 20 6 11 8 20 6 20 -3 0
-10 -9 -16 -20z"/>
<path d="M1120 1335 c7 -8 24 -14 39 -14 l26 2 -27 4 c-16 2 -28 9 -28 14 0 5
-5 9 -11 9 -8 0 -8 -5 1 -15z"/>
<path d="M890 1323 c0 -6 7 -16 15 -23 8 -7 16 -29 17 -49 l1 -36 4 33 c3 22
-2 40 -16 58 -12 15 -21 22 -21 17z"/>
<path d="M439 1293 l-24 -28 28 24 c25 23 32 31 24 31 -2 0 -14 -12 -28 -27z"/>
<path d="M390 1240 c-9 -6 -10 -10 -3 -10 6 0 15 5 18 10 8 12 4 12 -15 0z"/>
<path d="M623 1225 c-3 -9 2 -24 12 -35 16 -18 15 -19 -12 -36 -15 -10 -29
-18 -30 -19 -3 -1 22 -69 31 -84 5 -8 4 -16 -5 -22 -9 -6 -10 -9 -2 -9 17 0
26 18 16 33 -4 6 -13 27 -19 45 -11 31 -10 33 17 48 33 16 36 26 14 44 -23 19
-19 43 5 37 11 -3 18 -1 14 4 -9 14 -34 10 -41 -6z"/>
<path d="M705 1213 c16 -3 34 -10 38 -16 6 -8 7 -7 4 3 -2 9 -17 16 -38 16
-31 2 -31 1 -4 -3z"/>
<path d="M853 1203 c-24 -2 -44 -10 -47 -18 -4 -11 -1 -13 12 -6 9 5 42 14 72
19 56 10 39 12 -37 5z"/>
<path d="M768 1183 c7 -3 16 -2 19 1 4 3 -2 6 -13 5 -11 0 -14 -3 -6 -6z"/>
<path d="M202 1098 c-14 -19 -54 -99 -50 -103 2 -2 17 23 34 56 31 59 35 70
16 47z"/>
<path d="M610 1000 c0 -9 6 -22 13 -29 10 -10 7 -16 -13 -32 -21 -17 -22 -19
-3 -10 32 16 35 25 18 57 -8 16 -15 22 -15 14z"/>
<path d="M92 912 c-9 -6 -7 -13 10 -28 17 -14 19 -15 9 -2 -7 9 -10 22 -6 28
7 12 4 12 -13 2z"/>
<path d="M540 846 c0 -2 8 -10 18 -17 15 -13 16 -12 3 4 -13 16 -21 21 -21 13z"/>
<path d="M101 804 c0 -11 3 -14 6 -6 3 7 2 16 -1 19 -3 4 -6 -2 -5 -13z"/>
<path d="M570 796 c0 -2 7 -7 16 -10 8 -3 12 -2 9 4 -6 10 -25 14 -25 6z"/>
<path d="M102 745 c0 -16 2 -22 5 -12 2 9 2 23 0 30 -3 6 -5 -1 -5 -18z"/>
<path d="M570 754 c-14 -8 -18 -14 -10 -14 8 1 24 7 34 15 24 19 10 18 -24 -1z"/>
<path d="M455 711 c3 -12 0 -21 -10 -25 -8 -3 -15 -12 -15 -21 0 -8 -7 -15
-15 -15 -10 0 -15 -9 -14 -27 2 -24 2 -25 6 -5 2 12 11 22 19 22 8 0 14 9 14
19 0 10 7 22 16 25 9 4 14 13 10 21 -3 9 0 15 8 15 8 0 16 -6 19 -12 3 -10 9
-10 25 -1 14 8 23 9 27 3 8 -13 25 -3 25 13 0 8 -3 8 -9 -2 -6 -9 -10 -10 -16
-2 -5 9 -10 9 -21 0 -11 -9 -18 -9 -26 -1 -7 7 -20 12 -31 12 -13 0 -17 -5
-12 -19z"/>
<path d="M69 643 c-13 -16 -12 -17 4 -4 16 13 21 21 13 21 -2 0 -10 -8 -17
-17z"/>
<path d="M428 583 c12 -2 32 -2 45 0 12 2 2 4 -23 4 -25 0 -35 -2 -22 -4z"/>
<path d="M21 555 c0 -11 6 -31 14 -45 18 -32 18 -25 0 25 -8 22 -14 31 -14 20z"/>
<path d="M515 520 c-16 -7 -17 -9 -3 -9 9 -1 20 4 23 9 7 11 7 11 -20 0z"/>
<path d="M559 506 c6 -7 9 -20 5 -29 -3 -8 -1 -17 3 -20 5 -3 8 6 7 21 -2 40
-3 42 -15 42 -8 0 -8 -4 0 -14z"/>
<path d="M826 484 c-10 -7 -23 -11 -27 -8 -5 3 -9 0 -9 -5 0 -15 12 -14 38 5
21 14 22 14 19 -7 -1 -17 11 -32 53 -61 30 -22 61 -43 69 -47 11 -7 9 -15 -13
-43 -29 -39 -34 -89 -11 -108 9 -7 13 -20 10 -29 -5 -13 -4 -13 6 -4 10 10 9
16 -4 31 -24 27 -21 70 8 108 14 18 25 35 25 37 0 2 -32 25 -71 51 -55 37 -69
51 -64 66 8 25 -6 31 -29 14z"/>
<path d="M631 471 c-9 -6 -5 -8 15 -8 15 0 30 -6 32 -12 6 -18 52 -13 79 9 14
11 21 20 15 20 -6 0 -17 -7 -26 -15 -18 -19 -45 -19 -70 0 -23 17 -26 18 -45
6z"/>
<path d="M91 364 c0 -11 3 -14 6 -6 3 7 2 16 -1 19 -3 4 -6 -2 -5 -13z"/>
<path d="M91 294 c0 -11 3 -14 6 -6 3 7 2 16 -1 19 -3 4 -6 -2 -5 -13z"/>
<path d="M71 264 c0 -11 3 -14 6 -6 3 7 2 16 -1 19 -3 4 -6 -2 -5 -13z"/>
<path d="M91 225 c0 -17 -7 -38 -13 -45 -7 -8 -5 -8 5 1 13 11 17 26 14 45
l-4 29 -2 -30z"/>
</g>
</svg>
